<svg width="24" height="24" viewBox="0 0 24 24" fill="none" xmlns="http://www.w3.org/2000/svg">
<path d="M15.9 8C15.9 10.1548 14.1548 11.9 12 11.9C9.84523 11.9 8.1 10.1548 8.1 8C8.1 5.84523 9.84523 4.1 12 4.1C14.1548 4.1 15.9 5.84523 15.9 8ZM4.1 18C4.1 17.3717 4.41393 16.814 4.94235 16.3263C5.47145 15.838 6.20891 15.4266 7.03594 15.0953C8.69014 14.4327 10.6775 14.1 12 14.1C13.3225 14.1 15.3099 14.4327 16.9641 15.0953C17.7911 15.4266 18.5285 15.838 19.0576 16.3263C19.5861 16.814 19.9 17.3717 19.9 18V19.9H4.1V18Z" fill="#9E9E9E" stroke="#9E9E9E" stroke-width="0.2"/>
</svg>
