<svg width="18" height="18" viewBox="0 0 18 18" fill="none" xmlns="http://www.w3.org/2000/svg">
<mask id="path-1-outside-1_11018_107034" maskUnits="userSpaceOnUse" x="0" y="0" width="18" height="18" fill="black">
<rect fill="white" width="18" height="18"/>
<path d="M2.616 17C2.15533 17 1.771 16.846 1.463 16.538C1.155 16.23 1.00067 15.8453 1 15.384V2.616C1 2.15533 1.15433 1.771 1.463 1.463C1.77167 1.155 2.156 1.00067 2.616 1H15.385C15.845 1 16.2293 1.15433 16.538 1.463C16.8467 1.77167 17.0007 2.156 17 2.616V15.385C17 15.845 16.846 16.2293 16.538 16.538C16.23 16.8467 15.8453 17.0007 15.384 17H2.616ZM2.616 16H8.5V2H2.616C2.462 2 2.32067 2.064 2.192 2.192C2.06333 2.32 1.99933 2.46133 2 2.616V15.385C2 15.5383 2.064 15.6793 2.192 15.808C2.32 15.9367 2.461 16.0007 2.615 16M9.5 16H15.385C15.5383 16 15.6793 15.936 15.808 15.808C15.9367 15.68 16.0007 15.5387 16 15.384V9H9.5V16ZM9.5 8H16V2.616C16 2.462 15.936 2.32067 15.808 2.192C15.68 2.06333 15.5387 1.99933 15.384 2H9.5V8Z"/>
</mask>
<path d="M2.616 17C2.15533 17 1.771 16.846 1.463 16.538C1.155 16.23 1.00067 15.8453 1 15.384V2.616C1 2.15533 1.15433 1.771 1.463 1.463C1.77167 1.155 2.156 1.00067 2.616 1H15.385C15.845 1 16.2293 1.15433 16.538 1.463C16.8467 1.77167 17.0007 2.156 17 2.616V15.385C17 15.845 16.846 16.2293 16.538 16.538C16.23 16.8467 15.8453 17.0007 15.384 17H2.616ZM2.616 16H8.5V2H2.616C2.462 2 2.32067 2.064 2.192 2.192C2.06333 2.32 1.99933 2.46133 2 2.616V15.385C2 15.5383 2.064 15.6793 2.192 15.808C2.32 15.9367 2.461 16.0007 2.615 16M9.5 16H15.385C15.5383 16 15.6793 15.936 15.808 15.808C15.9367 15.68 16.0007 15.5387 16 15.384V9H9.5V16ZM9.5 8H16V2.616C16 2.462 15.936 2.32067 15.808 2.192C15.68 2.06333 15.5387 1.99933 15.384 2H9.5V8Z" fill="#9E9E9E"/>
<path d="M1 15.384H0.8L0.8 15.3843L1 15.384ZM2.616 1V0.8L2.61571 0.8L2.616 1ZM17 2.616L16.8 2.61571V2.616H17ZM15.384 17L15.3843 16.8H15.384V17ZM8.5 16V16.2H8.7V16H8.5ZM8.5 2H8.7V1.8H8.5V2ZM2 2.616H2.2L2.2 2.61514L2 2.616ZM9.5 16H9.3V16.2H9.5V16ZM16 15.384H15.8L15.8 15.3849L16 15.384ZM16 9H16.2V8.8H16V9ZM9.5 9V8.8H9.3V9H9.5ZM9.5 8H9.3V8.2H9.5V8ZM16 8V8.2H16.2V8H16ZM15.384 2V2.2L15.3849 2.2L15.384 2ZM9.5 2V1.8H9.3V2H9.5ZM2.616 16.8C2.20498 16.8 1.87258 16.6647 1.60442 16.3966L1.32158 16.6794C1.66942 17.0273 2.10568 17.2 2.616 17.2V16.8ZM1.60442 16.3966C1.33624 16.1284 1.20059 15.7956 1.2 15.3837L0.8 15.3843C0.800738 15.8951 0.973755 16.3316 1.32158 16.6794L1.60442 16.3966ZM1.2 15.384V2.616H0.8V15.384H1.2ZM1.2 2.616C1.2 2.20512 1.3355 1.87276 1.60427 1.60457L1.32173 1.32143C0.973169 1.66924 0.8 2.10555 0.8 2.616H1.2ZM1.60427 1.60457C1.87329 1.33613 2.20593 1.20059 2.61629 1.2L2.61571 0.8C2.10607 0.800739 1.67004 0.973865 1.32173 1.32143L1.60427 1.60457ZM2.616 1.2H15.385V0.8H2.616V1.2ZM15.385 1.2C15.7951 1.2 16.1276 1.33545 16.3966 1.60442L16.6794 1.32158C16.3311 0.97322 15.8949 0.8 15.385 0.8V1.2ZM16.3966 1.60442C16.6655 1.87332 16.8006 2.20567 16.8 2.61571L17.2 2.61629C17.2007 2.10633 17.0279 1.67001 16.6794 1.32158L16.3966 1.60442ZM16.8 2.616V15.385H17.2V2.616H16.8ZM16.8 15.385C16.8 15.7953 16.6648 16.1278 16.3964 16.3967L16.6796 16.6793C17.0272 16.3309 17.2 15.8947 17.2 15.385H16.8ZM16.3964 16.3967C16.1284 16.6654 15.7958 16.8006 15.3843 16.8L15.3837 17.2C15.8948 17.2007 16.3316 17.028 16.6796 16.6793L16.3964 16.3967ZM15.384 16.8H2.616V17.2H15.384V16.8ZM2.616 16.2H8.5V15.8H2.616V16.2ZM8.7 16V2H8.3V16H8.7ZM8.5 1.8H2.616V2.2H8.5V1.8ZM2.616 1.8C2.39979 1.8 2.20989 1.89209 2.05095 2.05021L2.33305 2.33379C2.43144 2.23591 2.52421 2.2 2.616 2.2V1.8ZM2.05095 2.05021C1.89144 2.20889 1.79906 2.39942 1.8 2.61686L2.2 2.61514C2.1996 2.52325 2.23522 2.43111 2.33305 2.33379L2.05095 2.05021ZM1.8 2.616V15.385H2.2V2.616H1.8ZM1.8 15.385C1.8 15.6008 1.89228 15.7903 2.05021 15.9491L2.33379 15.6669C2.23572 15.5684 2.2 15.4759 2.2 15.385H1.8ZM2.05021 15.9491C2.20869 16.1084 2.39885 16.2009 2.61587 16.2L2.61413 15.8C2.52315 15.8004 2.43131 15.765 2.33379 15.6669L2.05021 15.9491ZM9.5 16.2H15.385V15.8H9.5V16.2ZM15.385 16.2C15.6008 16.2 15.7903 16.1077 15.9491 15.9498L15.6669 15.6662C15.5684 15.7643 15.4759 15.8 15.385 15.8V16.2ZM15.9491 15.9498C16.1086 15.7911 16.2009 15.6006 16.2 15.3831L15.8 15.3849C15.8004 15.4768 15.7648 15.5689 15.6669 15.6662L15.9491 15.9498ZM16.2 15.384V9H15.8V15.384H16.2ZM16 8.8H9.5V9.2H16V8.8ZM9.3 9V16H9.7V9H9.3ZM9.5 8.2H16V7.8H9.5V8.2ZM16.2 8V2.616H15.8V8H16.2ZM16.2 2.616C16.2 2.39979 16.1079 2.2099 15.9498 2.05095L15.6662 2.33305C15.7641 2.43144 15.8 2.52421 15.8 2.616H16.2ZM15.9498 2.05095C15.7911 1.89144 15.6006 1.79906 15.3831 1.8L15.3849 2.2C15.4768 2.1996 15.5689 2.23522 15.6662 2.33305L15.9498 2.05095ZM15.384 1.8H9.5V2.2H15.384V1.8ZM9.3 2V8H9.7V2H9.3Z" fill="#9E9E9E" mask="url(#path-1-outside-1_11018_107034)"/>
</svg>
