<svg width="184" height="40" viewBox="0 0 184 40" fill="none" xmlns="http://www.w3.org/2000/svg">
<path d="M41.7391 0L23.4783 10.1V29.9L41.7391 40L60 29.9V10.1M41.7391 5.775L51.6522 11.25L41.7391 16.725L31.8522 11.25M0 7.5V12.5H18.2609V7.5M28.6957 15.275L39.1304 21.05V32.775L28.6957 27.025M54.7826 15.275V27.025L44.3478 32.775V21.05M5.21739 17.5V22.5H18.2609V17.5M10.4348 27.5V32.5H18.2609V27.5" fill="#FF9800"/>
<path d="M78.081 19.6883H81.4548V35.4153C81.4548 36.4051 81.2782 37.2386 80.925 37.9163C80.5718 38.6028 80.0514 39.1199 79.3636 39.4675C78.6759 39.8242 77.8347 40.0026 76.8402 40.0026C76.5428 40.0026 76.2361 39.9802 75.9201 39.9356C75.5948 39.8999 75.2881 39.8466 75 39.7752L75.0139 37.261C75.2091 37.2967 75.4182 37.3234 75.6413 37.3413C75.8551 37.3679 76.0595 37.3813 76.2547 37.3813C76.6544 37.3813 76.989 37.3145 77.2585 37.1807C77.528 37.0471 77.7325 36.8375 77.8719 36.5522C78.0113 36.2669 78.081 35.888 78.081 35.4153V19.6883ZM77.7882 15.8903C77.7882 15.3999 77.9602 14.9942 78.3041 14.6733C78.648 14.3434 79.1173 14.1785 79.7121 14.1785C80.3163 14.1785 80.7856 14.3434 81.1202 14.6733C81.4641 14.9942 81.636 15.3999 81.636 15.8903C81.636 16.3717 81.4641 16.7729 81.1202 17.0939C80.7856 17.4148 80.3163 17.5753 79.7121 17.5753C79.1173 17.5753 78.648 17.4148 78.3041 17.0939C77.9602 16.7729 77.7882 16.3717 77.7882 15.8903ZM88.6764 19.6883V34.1583H85.3026V19.6883H88.6764ZM85.0795 15.8903C85.0795 15.3999 85.2468 14.9942 85.5814 14.6733C85.9253 14.3434 86.3993 14.1785 87.0034 14.1785C87.5983 14.1785 88.0676 14.3434 88.4115 14.6733C88.7554 14.9942 88.9273 15.3999 88.9273 15.8903C88.9273 16.3717 88.7554 16.7729 88.4115 17.0939C88.0676 17.4148 87.5983 17.5753 87.0034 17.5753C86.3993 17.5753 85.9253 17.4148 85.5814 17.0939C85.2468 16.7729 85.0795 16.3717 85.0795 15.8903ZM96.9017 34.1583H93.5419V18.2975C93.5419 17.2187 93.751 16.3137 94.1692 15.5827C94.5968 14.8427 95.2055 14.2854 95.9956 13.911C96.7855 13.5276 97.7196 13.3359 98.7976 13.3359C99.1322 13.3359 99.4623 13.3582 99.7876 13.4028C100.113 13.4385 100.429 13.4964 100.735 13.5767L100.652 16.0641C100.466 16.0195 100.262 15.9883 100.039 15.9705C99.8246 15.9527 99.5923 15.9438 99.3414 15.9438C98.8303 15.9438 98.3888 16.0374 98.017 16.2246C97.6545 16.4029 97.3756 16.6659 97.1805 17.0136C96.9947 17.3613 96.9017 17.7893 96.9017 18.2975V34.1583ZM100.011 19.6883V22.042H91.2276V19.6883H100.011ZM106.995 34.1583H103.635V18.2975C103.635 17.2187 103.844 16.3137 104.263 15.5827C104.69 14.8427 105.299 14.2854 106.089 13.911C106.879 13.5276 107.813 13.3359 108.891 13.3359C109.226 13.3359 109.556 13.3582 109.881 13.4028C110.206 13.4385 110.522 13.4964 110.829 13.5767L110.745 16.0641C110.56 16.0195 110.355 15.9883 110.132 15.9705C109.918 15.9527 109.686 15.9438 109.435 15.9438C108.924 15.9438 108.482 16.0374 108.11 16.2246C107.748 16.4029 107.469 16.6659 107.274 17.0136C107.088 17.3613 106.995 17.7893 106.995 18.2975V34.1583ZM110.104 19.6883V22.042H101.321V19.6883H110.104ZM116.921 32.5803L121.02 19.6883H124.617L118.566 36.365C118.427 36.7215 118.246 37.1093 118.023 37.5285C117.8 37.9474 117.507 38.3441 117.144 38.7186C116.791 39.1021 116.35 39.4096 115.82 39.6414C115.29 39.8821 114.649 40.0026 113.896 40.0026C113.599 40.0026 113.311 39.9758 113.032 39.9223C112.762 39.8777 112.507 39.8287 112.265 39.7752L112.251 37.3145C112.344 37.3234 112.456 37.3324 112.586 37.3413C112.725 37.3502 112.837 37.3546 112.92 37.3546C113.478 37.3546 113.943 37.2878 114.314 37.1539C114.686 37.0292 114.988 36.824 115.221 36.5387C115.462 36.2534 115.667 35.8702 115.834 35.3888L116.921 32.5803ZM114.607 19.6883L118.19 30.5208L118.79 33.9176L116.461 34.4926L110.982 19.6883H114.607ZM135.003 30.2399C135.003 29.919 134.92 29.6292 134.752 29.3707C134.585 29.1032 134.264 28.8625 133.79 28.6485C133.326 28.4345 132.638 28.2384 131.727 28.0601C130.928 27.8907 130.193 27.6901 129.524 27.4583C128.864 27.2175 128.297 26.9278 127.823 26.589C127.349 26.2502 126.982 25.849 126.722 25.3854C126.462 24.9218 126.332 24.3868 126.332 23.7806C126.332 23.1922 126.466 22.6349 126.736 22.1089C127.005 21.5829 127.391 21.1193 127.893 20.7181C128.395 20.3169 129.004 20.0004 129.719 19.7685C130.444 19.5367 131.253 19.4208 132.145 19.4208C133.409 19.4208 134.492 19.6259 135.394 20.036C136.304 20.4372 137.002 20.9855 137.485 21.681C137.968 22.3674 138.21 23.1431 138.21 24.0079H134.85C134.85 23.6245 134.748 23.2679 134.543 22.9381C134.348 22.5993 134.05 22.3273 133.651 22.1223C133.251 21.9083 132.749 21.8013 132.145 21.8013C131.569 21.8013 131.09 21.8905 130.709 22.0688C130.337 22.2382 130.059 22.4611 129.873 22.7374C129.696 23.0138 129.608 23.317 129.608 23.6468C129.608 23.8876 129.654 24.106 129.747 24.3021C129.85 24.4894 130.017 24.6632 130.249 24.8237C130.481 24.9753 130.797 25.1179 131.197 25.2517C131.606 25.3854 132.117 25.5147 132.731 25.6395C133.883 25.8713 134.873 26.17 135.7 26.5355C136.537 26.8921 137.178 27.3557 137.624 27.9263C138.07 28.488 138.293 29.2013 138.293 30.0661C138.293 30.708 138.149 31.2964 137.861 31.8314C137.582 32.3573 137.173 32.8165 136.634 33.2088C136.095 33.5923 135.449 33.8909 134.696 34.1048C133.953 34.3187 133.116 34.4258 132.187 34.4258C130.821 34.4258 129.664 34.194 128.716 33.7305C127.768 33.2578 127.047 32.6561 126.555 31.925C126.071 31.185 125.83 30.4182 125.83 29.6248H129.078C129.115 30.2221 129.287 30.6991 129.594 31.0557C129.91 31.4034 130.3 31.6575 130.765 31.818C131.239 31.9696 131.727 32.0453 132.229 32.0453C132.833 32.0453 133.339 31.9696 133.749 31.818C134.157 31.6575 134.469 31.4435 134.683 31.1761C134.896 30.8997 135.003 30.5876 135.003 30.2399ZM147.397 31.8581C147.945 31.8581 148.438 31.7556 148.875 31.5505C149.321 31.3365 149.679 31.0423 149.948 30.6679C150.227 30.2934 150.38 29.861 150.408 29.3707H153.573C153.554 30.3068 153.266 31.1582 152.708 31.925C152.151 32.6918 151.412 33.3024 150.492 33.7571C149.572 34.2029 148.554 34.4258 147.439 34.4258C146.286 34.4258 145.283 34.2386 144.427 33.8641C143.572 33.4807 142.861 32.9547 142.294 32.2861C141.728 31.6174 141.3 30.8462 141.012 29.9725C140.733 29.0987 140.594 28.1626 140.594 27.164V26.696C140.594 25.6974 140.733 24.7613 141.012 23.8876C141.3 23.0049 141.728 22.2293 142.294 21.5606C142.861 20.8919 143.572 20.3704 144.427 19.9959C145.283 19.6125 146.282 19.4208 147.425 19.4208C148.633 19.4208 149.693 19.6527 150.603 20.1163C151.514 20.571 152.23 21.2084 152.75 22.0286C153.28 22.84 153.554 23.785 153.573 24.8638H150.408C150.38 24.3289 150.241 23.8474 149.99 23.4195C149.748 22.9826 149.404 22.6349 148.958 22.3764C148.521 22.1178 147.996 21.9885 147.383 21.9885C146.705 21.9885 146.142 22.1223 145.696 22.3897C145.25 22.6483 144.901 23.0049 144.65 23.4596C144.4 23.9054 144.218 24.4091 144.107 24.9708C144.005 25.5236 143.954 26.0986 143.954 26.696V27.164C143.954 27.7614 144.005 28.3409 144.107 28.9026C144.209 29.4643 144.386 29.968 144.637 30.4138C144.897 30.8507 145.25 31.2028 145.696 31.4703C146.142 31.7288 146.709 31.8581 147.397 31.8581ZM164.656 31.2563V24.3556C164.656 23.8385 164.559 23.3927 164.363 23.0183C164.168 22.6438 163.871 22.3541 163.471 22.149C163.081 21.9439 162.588 21.8414 161.993 21.8414C161.445 21.8414 160.971 21.9306 160.571 22.1089C160.172 22.2872 159.86 22.5279 159.637 22.831C159.414 23.1342 159.303 23.4774 159.303 23.8608H155.957C155.957 23.2902 156.101 22.7374 156.389 22.2025C156.677 21.6676 157.095 21.1906 157.644 20.7715C158.192 20.3525 158.847 20.0226 159.609 19.7819C160.372 19.5412 161.227 19.4208 162.175 19.4208C163.308 19.4208 164.312 19.6036 165.186 19.9691C166.069 20.3347 166.761 20.8875 167.263 21.6275C167.774 22.3585 168.03 23.2768 168.03 24.3824V30.815C168.03 31.4747 168.076 32.0676 168.169 32.5936C168.272 33.1107 168.416 33.561 168.602 33.9444V34.1583H165.158C165 33.8106 164.875 33.3692 164.782 32.8343C164.698 32.2905 164.656 31.7645 164.656 31.2563ZM165.144 25.3586L165.172 27.3513H162.76C162.137 27.3513 161.589 27.4092 161.115 27.5251C160.641 27.6321 160.246 27.7926 159.93 28.0066C159.614 28.2205 159.377 28.4791 159.219 28.7822C159.061 29.0854 158.982 29.4286 158.982 29.812C158.982 30.1953 159.075 30.5475 159.261 30.8685C159.447 31.1805 159.716 31.4257 160.07 31.604C160.432 31.7823 160.869 31.8715 161.38 31.8715C162.068 31.8715 162.667 31.7378 163.178 31.4703C163.699 31.1939 164.108 30.8596 164.405 30.4673C164.703 30.0661 164.861 29.6872 164.879 29.3305L165.967 30.7615C165.855 31.127 165.665 31.5193 165.395 31.9384C165.126 32.3573 164.772 32.7586 164.335 33.142C163.908 33.5164 163.392 33.8241 162.788 34.0648C162.193 34.3055 161.506 34.4258 160.725 34.4258C159.74 34.4258 158.861 34.2386 158.09 33.8641C157.319 33.4807 156.714 32.9681 156.277 32.3262C155.841 31.6753 155.622 30.9398 155.622 30.1196C155.622 29.3528 155.771 28.6752 156.068 28.0868C156.375 27.4895 156.821 26.9902 157.407 26.589C158.002 26.1878 158.726 25.8847 159.582 25.6796C160.437 25.4656 161.413 25.3586 162.509 25.3586H165.144ZM174.875 22.7776V34.1583H171.515V19.6883H174.68L174.875 22.7776ZM174.276 26.3884L173.188 26.375C173.197 25.3497 173.346 24.4091 173.634 23.5532C173.932 22.6973 174.341 21.9618 174.861 21.3466C175.391 20.7314 176.023 20.2589 176.757 19.929C177.492 19.5902 178.309 19.4208 179.211 19.4208C179.936 19.4208 180.591 19.5189 181.177 19.715C181.771 19.9023 182.278 20.2099 182.696 20.6378C183.124 21.0658 183.449 21.623 183.672 22.3095C183.895 22.9871 184.007 23.8207 184.007 24.8103V34.1583H180.633V24.797C180.633 24.1015 180.526 23.5532 180.312 23.152C180.108 22.7419 179.806 22.4521 179.406 22.2827C179.016 22.1044 178.528 22.0153 177.942 22.0153C177.366 22.0153 176.85 22.1312 176.395 22.363C175.939 22.5948 175.554 22.9113 175.238 23.3125C174.931 23.7137 174.694 24.1773 174.527 24.7033C174.359 25.2293 174.276 25.791 174.276 26.3884Z" fill="white"/>
</svg>
