<svg width="194" height="36" viewBox="0 0 194 36" fill="none" xmlns="http://www.w3.org/2000/svg">
<path d="M50.6306 0.703125L35.0747 9.35883V26.3274L50.6306 34.9832L66.1865 26.3274V9.35883M50.6306 5.6523L59.0752 10.3444L50.6306 15.0365L42.2082 10.3444M15.0742 7.13063V11.4156H30.6301V7.13063M39.5192 13.7938L48.4083 18.743V28.7913L39.5192 23.8636M61.742 13.7938V23.8636L52.8529 28.7913V18.743M19.5188 15.7006V19.9856H30.6301V15.7006M23.9633 24.2706V28.5557H30.6301V24.2706" fill="#FF9800"/>
<path d="M84.8396 12.9995H88.0259V27.8529C88.0259 28.7877 87.8591 29.5749 87.5256 30.2149C87.192 30.8633 86.7005 31.3517 86.0509 31.6799C85.4013 32.0168 84.6069 32.1853 83.6677 32.1853C83.3868 32.1853 83.0971 32.1642 82.7987 32.122C82.4915 32.0883 82.2018 32.038 81.9297 31.9706L81.9429 29.596C82.1272 29.6297 82.3247 29.655 82.5354 29.6719C82.7373 29.6969 82.9304 29.7097 83.1147 29.7097C83.4921 29.7097 83.8082 29.6466 84.0627 29.5202C84.3173 29.394 84.5104 29.196 84.642 28.9266C84.7737 28.6571 84.8396 28.2993 84.8396 27.8529V12.9995ZM84.563 9.41244C84.563 8.94931 84.7254 8.56618 85.0502 8.26305C85.375 7.9515 85.8183 7.79572 86.3801 7.79572C86.9506 7.79572 87.3939 7.9515 87.7099 8.26305C88.0347 8.56618 88.1971 8.94931 88.1971 9.41244C88.1971 9.86712 88.0347 10.246 87.7099 10.5492C87.3939 10.8523 86.9506 11.0039 86.3801 11.0039C85.8183 11.0039 85.375 10.8523 85.0502 10.5492C84.7254 10.246 84.563 9.86712 84.563 9.41244ZM94.8463 12.9995V26.6657H91.66V12.9995H94.8463ZM91.4493 9.41244C91.4493 8.94931 91.6073 8.56618 91.9233 8.26305C92.2481 7.9515 92.6958 7.79572 93.2663 7.79572C93.8281 7.79572 94.2714 7.9515 94.5962 8.26305C94.921 8.56618 95.0833 8.94931 95.0833 9.41244C95.0833 9.86712 94.921 10.246 94.5962 10.5492C94.2714 10.8523 93.8281 11.0039 93.2663 11.0039C92.6958 11.0039 92.2481 10.8523 91.9233 10.5492C91.6073 10.246 91.4493 9.86712 91.4493 9.41244ZM102.615 26.6657H99.4416V11.6859C99.4416 10.6671 99.6391 9.81239 100.034 9.12193C100.438 8.42304 101.013 7.89677 101.759 7.54311C102.505 7.18104 103.387 7 104.405 7C104.721 7 105.033 7.02105 105.34 7.06315C105.647 7.09683 105.946 7.15157 106.236 7.22735L106.157 9.57662C105.981 9.53453 105.788 9.50505 105.577 9.48822C105.375 9.47137 105.156 9.46296 104.919 9.46296C104.436 9.46296 104.019 9.55136 103.668 9.7282C103.326 9.8966 103.062 10.145 102.878 10.4734C102.703 10.8018 102.615 11.206 102.615 11.6859V26.6657ZM105.551 12.9995V15.2225H97.2559V12.9995H105.551ZM112.147 26.6657H108.974V11.6859C108.974 10.6671 109.172 9.81239 109.567 9.12193C109.971 8.42304 110.546 7.89677 111.292 7.54311C112.038 7.18104 112.92 7 113.938 7C114.254 7 114.566 7.02105 114.873 7.06315C115.18 7.09683 115.479 7.15157 115.768 7.22735L115.689 9.57662C115.514 9.53453 115.321 9.50505 115.11 9.48822C114.908 9.47137 114.689 9.46296 114.452 9.46296C113.969 9.46296 113.552 9.55136 113.201 9.7282C112.859 9.8966 112.595 10.145 112.411 10.4734C112.235 10.8018 112.147 11.206 112.147 11.6859V26.6657ZM115.084 12.9995V15.2225H106.789V12.9995H115.084ZM121.522 25.1754L125.393 12.9995H128.79L123.076 28.7498C122.944 29.0865 122.773 29.4528 122.563 29.8486C122.352 30.2443 122.075 30.619 121.733 30.9727C121.399 31.3348 120.983 31.6253 120.482 31.8442C119.982 32.0715 119.376 32.1853 118.665 32.1853C118.384 32.1853 118.112 32.1601 117.849 32.1095C117.594 32.0674 117.353 32.0211 117.125 31.9706L117.111 29.6466C117.199 29.655 117.305 29.6634 117.428 29.6719C117.559 29.6803 117.664 29.6844 117.743 29.6844C118.27 29.6844 118.709 29.6213 119.06 29.4949C119.411 29.3771 119.697 29.1833 119.916 28.9139C120.144 28.6444 120.337 28.2824 120.495 27.8278L121.522 25.1754ZM119.337 12.9995L122.72 23.2302L123.287 26.4384L121.088 26.9814L115.913 12.9995H119.337ZM138.6 22.965C138.6 22.6618 138.521 22.3882 138.363 22.144C138.205 21.8914 137.902 21.664 137.454 21.4619C137.015 21.2598 136.366 21.0746 135.505 20.9062C134.751 20.7462 134.057 20.5568 133.425 20.3378C132.802 20.1105 132.266 19.8368 131.819 19.5168C131.371 19.1969 131.024 18.8179 130.779 18.3801C130.533 17.9422 130.41 17.437 130.41 16.8644C130.41 16.3087 130.537 15.7824 130.792 15.2856C131.046 14.7888 131.411 14.351 131.885 13.972C132.359 13.5931 132.934 13.2942 133.609 13.0753C134.294 12.8564 135.058 12.7469 135.901 12.7469C137.094 12.7469 138.117 12.9405 138.968 13.3279C139.829 13.7068 140.487 14.2247 140.943 14.8814C141.4 15.5298 141.628 16.2624 141.628 17.0791H138.455C138.455 16.7171 138.358 16.3803 138.165 16.0687C137.981 15.7487 137.7 15.4919 137.323 15.2983C136.945 15.0962 136.471 14.9951 135.901 14.9951C135.356 14.9951 134.904 15.0793 134.544 15.2477C134.193 15.4077 133.93 15.6182 133.754 15.8793C133.588 16.1403 133.504 16.4266 133.504 16.7381C133.504 16.9655 133.548 17.1718 133.636 17.357C133.732 17.5339 133.89 17.6981 134.11 17.8496C134.329 17.9928 134.628 18.1275 135.005 18.2538C135.391 18.3801 135.874 18.5022 136.454 18.6201C137.542 18.839 138.477 19.1211 139.258 19.4663C140.048 19.8031 140.654 20.241 141.075 20.7799C141.496 21.3104 141.707 21.984 141.707 22.8008C141.707 23.407 141.571 23.9628 141.299 24.468C141.036 24.9647 140.649 25.3984 140.14 25.769C139.631 26.1311 139.021 26.4131 138.31 26.6152C137.608 26.8172 136.818 26.9183 135.94 26.9183C134.65 26.9183 133.557 26.6994 132.662 26.2616C131.766 25.8152 131.086 25.2469 130.62 24.5564C130.164 23.8575 129.936 23.1334 129.936 22.384H133.004C133.039 22.9481 133.201 23.3986 133.491 23.7354C133.789 24.0638 134.158 24.3038 134.597 24.4554C135.045 24.5985 135.505 24.6701 135.979 24.6701C136.55 24.6701 137.028 24.5985 137.415 24.4554C137.801 24.3038 138.095 24.1017 138.297 23.8491C138.499 23.5881 138.6 23.2934 138.6 22.965ZM150.305 24.4933C150.823 24.4933 151.288 24.3964 151.701 24.2028C152.122 24.0007 152.46 23.7228 152.715 23.3691C152.978 23.0155 153.123 22.6071 153.149 22.144H156.138C156.12 23.0281 155.848 23.8323 155.321 24.5564C154.795 25.2806 154.097 25.8573 153.228 26.2867C152.359 26.7078 151.398 26.9183 150.345 26.9183C149.256 26.9183 148.308 26.7415 147.5 26.3878C146.693 26.0257 146.021 25.5289 145.486 24.8975C144.951 24.2659 144.547 23.5376 144.275 22.7124C144.011 21.8872 143.88 21.003 143.88 20.06V19.6179C143.88 18.6748 144.011 17.7907 144.275 16.9655C144.547 16.1319 144.951 15.3993 145.486 14.7678C146.021 14.1362 146.693 13.6437 147.5 13.29C148.308 12.9279 149.252 12.7469 150.331 12.7469C151.472 12.7469 152.473 12.9658 153.333 13.4037C154.194 13.8331 154.87 14.4352 155.361 15.2098C155.861 15.9761 156.12 16.8686 156.138 17.8875H153.149C153.123 17.3823 152.991 16.9276 152.754 16.5234C152.526 16.1108 152.201 15.7824 151.78 15.5382C151.367 15.294 150.871 15.1719 150.292 15.1719C149.651 15.1719 149.12 15.2983 148.699 15.5509C148.277 15.795 147.948 16.1319 147.711 16.5613C147.474 16.9823 147.303 17.4581 147.198 17.9886C147.101 18.5106 147.053 19.0537 147.053 19.6179V20.06C147.053 20.6241 147.101 21.1714 147.198 21.7019C147.294 22.2324 147.461 22.7081 147.698 23.1292C147.944 23.5418 148.277 23.8744 148.699 24.127C149.12 24.3712 149.655 24.4933 150.305 24.4933ZM166.606 23.9249V17.4075C166.606 16.9192 166.513 16.4981 166.329 16.1445C166.145 15.7908 165.864 15.5172 165.486 15.3235C165.118 15.1298 164.652 15.033 164.091 15.033C163.573 15.033 163.125 15.1172 162.748 15.2856C162.37 15.454 162.076 15.6814 161.865 15.9677C161.655 16.254 161.549 16.5781 161.549 16.9402H158.389C158.389 16.4013 158.525 15.8793 158.798 15.374C159.07 14.8688 159.465 14.4183 159.982 14.0226C160.501 13.6268 161.119 13.3153 161.839 13.0879C162.559 12.8606 163.367 12.7469 164.262 12.7469C165.333 12.7469 166.281 12.9195 167.106 13.2647C167.94 13.61 168.594 14.132 169.068 14.8309C169.551 15.5214 169.792 16.3887 169.792 17.4328V23.5081C169.792 24.1312 169.836 24.6911 169.924 25.1879C170.02 25.6763 170.156 26.1015 170.332 26.4637V26.6657H167.079C166.93 26.3373 166.812 25.9205 166.724 25.4152C166.645 24.9016 166.606 24.4049 166.606 23.9249ZM167.066 18.3548L167.093 20.2368H164.815C164.227 20.2368 163.709 20.2915 163.261 20.401C162.814 20.502 162.44 20.6536 162.142 20.8557C161.844 21.0578 161.62 21.302 161.471 21.5882C161.321 21.8745 161.247 22.1987 161.247 22.5608C161.247 22.9229 161.334 23.2555 161.51 23.5586C161.685 23.8533 161.94 24.0849 162.274 24.2533C162.616 24.4217 163.028 24.5059 163.511 24.5059C164.161 24.5059 164.727 24.3796 165.21 24.127C165.701 23.8659 166.088 23.5502 166.369 23.1797C166.649 22.8008 166.799 22.4429 166.816 22.1061L167.843 23.4576C167.738 23.8028 167.558 24.1733 167.303 24.5691C167.049 24.9647 166.715 25.3437 166.303 25.7059C165.899 26.0594 165.412 26.35 164.841 26.5773C164.279 26.8047 163.63 26.9183 162.892 26.9183C161.962 26.9183 161.132 26.7415 160.404 26.3878C159.675 26.0257 159.105 25.5416 158.692 24.9353C158.28 24.3206 158.073 23.626 158.073 22.8513C158.073 22.1271 158.214 21.4872 158.495 20.9315C158.784 20.3673 159.206 19.8958 159.759 19.5168C160.321 19.1379 161.005 18.8516 161.813 18.658C162.62 18.4559 163.542 18.3548 164.578 18.3548H167.066ZM176.257 15.9171V26.6657H173.084V12.9995H176.072L176.257 15.9171ZM175.691 19.3274L174.663 19.3147C174.672 18.3464 174.813 17.4581 175.085 16.6497C175.366 15.8414 175.752 15.1467 176.244 14.5657C176.744 13.9847 177.341 13.5384 178.034 13.2269C178.728 12.9069 179.5 12.7469 180.352 12.7469C181.036 12.7469 181.655 12.8395 182.208 13.0248C182.77 13.2016 183.248 13.4921 183.643 13.8963C184.047 14.3004 184.354 14.8267 184.565 15.4751C184.776 16.115 184.881 16.9023 184.881 17.837V26.6657H181.695V17.8244C181.695 17.1676 181.594 16.6497 181.392 16.2708C181.199 15.8835 180.913 15.6098 180.536 15.4498C180.167 15.2814 179.707 15.1972 179.154 15.1972C178.609 15.1972 178.122 15.3067 177.692 15.5256C177.262 15.7445 176.898 16.0435 176.599 16.4224C176.309 16.8013 176.086 17.2391 175.928 17.7359C175.77 18.2327 175.691 18.7632 175.691 19.3274Z" fill="black"/>
</svg>
